ISO-10303-21;
HEADER;
FILE_DESCRIPTION (( 'STEP AP214' ),
    '1' );
FILE_NAME ('remover2.STEP',
    '2026-10-07T11:17:17',
    ( '' ),
    ( '' ),
    'SwSTEP 2.0',
    'SolidWorks 2026',
    '' );
FILE_SCHEMA (( 'AUTOMOTIVE_DESIGN' ));
ENDSEC;

DATA;
#1 = DIRECTION ( 'NONE',  ( -0.000000000000000000, -0.000000000000000000, -1.000000000000000000 ) ) ;
#2 = EDGE_CURVE ( 'NONE', #517, #491, #228, .T. ) ;
#3 = ORIENTED_EDGE ( 'NONE', *, *, #227, .F. ) ;
#4 = DIRECTION ( 'NONE',  ( 1.000000000000000000, 0.000000000000000000, 0.000000000000000000 ) ) ;
#5 = EDGE_CURVE ( 'NONE', #310, #10, #139, .T. ) ;
#6 = EDGE_LOOP ( 'NONE', ( #493, #469, #160, #180 ) ) ;
#7 = FACE_OUTER_BOUND ( 'NONE', #29, .T. ) ;
#8 = CIRCLE ( 'NONE', #543, 4.999999999999999112 ) ;
#9 = AXIS2_PLACEMENT_3D ( 'NONE', #37, #184, #46 ) ;
#10 = VERTEX_POINT ( 'NONE', #142 ) ;
#11 =( NAMED_UNIT ( * ) PLANE_ANGLE_UNIT ( ) SI_UNIT ( $, .RADIAN. ) );
#12 = CARTESIAN_POINT ( 'NONE',  ( 8.500000000000001776, 5.267826876426365601, 8.000000000000000000 ) ) ;
#13 = DIRECTION ( 'NONE',  ( -0.000000000000000000, -0.000000000000000000, -1.000000000000000000 ) ) ;
#14 = VERTEX_POINT ( 'NONE', #199 ) ;
#15 = DIRECTION ( 'NONE',  ( 0.2588190451025212946, 0.9659258262890680902, 0.000000000000000000 ) ) ;
#16 = CIRCLE ( 'NONE', #396, 10.00000000000000000 ) ;
#17 = PLANE ( 'NONE',  #307 ) ;
#18 = EDGE_CURVE ( 'NONE', #346, #561, #323, .T. ) ;
#19 = LINE ( 'NONE', #291, #351 ) ;
#20 = ORIENTED_EDGE ( 'NONE', *, *, #477, .T. ) ;
#21 = CARTESIAN_POINT ( 'NONE',  ( 2.080933288751036780, -4.546396006483353069, 0.000000000000000000 ) ) ;
#22 = CARTESIAN_POINT ( 'NONE',  ( 1.497119946501244359, -5.455675207780025460, 8.000000000000000000 ) ) ;
#23 = DIRECTION ( 'NONE',  ( 0.000000000000000000, 0.000000000000000000, -1.000000000000000000 ) ) ;
#24 = CARTESIAN_POINT ( 'NONE',  ( 0.000000000000000000, 0.000000000000000000, 8.000000000000000000 ) ) ;
#25 = VERTEX_POINT ( 'NONE', #496 ) ;
#26 = DIRECTION ( 'NONE',  ( 1.000000000000000000, 0.000000000000000000, 0.000000000000000000 ) ) ;
#27 = DIRECTION ( 'NONE',  ( -0.1736481776669314137, -0.9848077530122079093, 0.000000000000000000 ) ) ;
#28 = EDGE_CURVE ( 'NONE', #446, #488, #295, .T. ) ;
#29 = EDGE_LOOP ( 'NONE', ( #97, #258, #169, #558 ) ) ;
#30 = LINE ( 'NONE', #255, #522 ) ;
#31 = ORIENTED_EDGE ( 'NONE', *, *, #45, .T. ) ;
#32 =( GEOMETRIC_REPRESENTATION_CONTEXT ( 3 ) GLOBAL_UNCERTAINTY_ASSIGNED_CONTEXT ( ( #225 ) ) GLOBAL_UNIT_ASSIGNED_CONTEXT ( ( #495, #11, #539 ) ) REPRESENTATION_CONTEXT ( 'NONE', 'WORKASPACE' ) );
#33 = CYLINDRICAL_SURFACE ( 'NONE', #316, 10.00000000000000000 ) ;
#34 = ORIENTED_EDGE ( 'NONE', *, *, #177, .T. ) ;
#35 = CARTESIAN_POINT ( 'NONE',  ( 1.294095225512608360, -4.829629131445338786, 0.000000000000000000 ) ) ;
#36 = ORIENTED_EDGE ( 'NONE', *, *, #377, .F. ) ;
#37 = CARTESIAN_POINT ( 'NONE',  ( 0.000000000000000000, 0.000000000000000000, 0.000000000000000000 ) ) ;
#38 = EDGE_LOOP ( 'NONE', ( #167, #31, #263, #42 ) ) ;
#39 = CARTESIAN_POINT ( 'NONE',  ( 0.000000000000000000, 0.000000000000000000, 8.000000000000000000 ) ) ;
#40 = VECTOR ( 'NONE', #207, 1000.000000000000000 ) ;
#41 = VECTOR ( 'NONE', #521, 1000.000000000000000 ) ;
#42 = ORIENTED_EDGE ( 'NONE', *, *, #78, .F. ) ;
#43 = CARTESIAN_POINT ( 'NONE',  ( -2.449293598294706414E-16, 8.000000000000000000, 8.000000000000000000 ) ) ;
#44 = ORIENTED_EDGE ( 'NONE', *, *, #238, .F. ) ;
#45 = EDGE_CURVE ( 'NONE', #119, #211, #244, .T. ) ;
#46 = DIRECTION ( 'NONE',  ( 1.000000000000000000, 0.000000000000000000, 0.000000000000000000 ) ) ;
#47 = ORIENTED_EDGE ( 'NONE', *, *, #227, .T. ) ;
#48 = FACE_OUTER_BOUND ( 'NONE', #457, .T. ) ;
#49 = AXIS2_PLACEMENT_3D ( 'NONE', #534, #134, #265 ) ;
#50 = VECTOR ( 'NONE', #181, 1000.000000000000000 ) ;
#51 = EDGE_LOOP ( 'NONE', ( #547, #440, #479, #344 ) ) ;
#52 = DIRECTION ( 'NONE',  ( 1.000000000000000000, 0.000000000000000000, 0.000000000000000000 ) ) ;
#53 = CARTESIAN_POINT ( 'NONE',  ( -2.080933288751034560, -4.546396006483354846, 0.000000000000000000 ) ) ;
#54 = ORIENTED_EDGE ( 'NONE', *, *, #78, .T. ) ;
#55 = EDGE_CURVE ( 'NONE', #219, #60, #552, .T. ) ;
#56 = CARTESIAN_POINT ( 'NONE',  ( -8.500000000000001776, -5.267826876426367377, 8.000000000000000000 ) ) ;
#57 = VECTOR ( 'NONE', #319, 1000.000000000000000 ) ;
#58 = AXIS2_PLACEMENT_3D ( 'NONE', #368, #158, #334 ) ;
#59 = CARTESIAN_POINT ( 'NONE',  ( 2.497119946501244581, -5.455675207780025460, 8.000000000000000000 ) ) ;
#60 = VERTEX_POINT ( 'NONE', #471 ) ;
#61 = CARTESIAN_POINT ( 'NONE',  ( -8.500000000000001776, 5.267826876426366489, 0.000000000000000000 ) ) ;
#62 = PRODUCT_DEFINITION ( 'ๆ', '', #241, #170 ) ;
#63 = CARTESIAN_POINT ( 'NONE',  ( -2.080933288751034560, -4.546396006483354846, 8.000000000000000000 ) ) ;
#64 = VERTEX_POINT ( 'NONE', #189 ) ;
#65 = CARTESIAN_POINT ( 'NONE',  ( -8.500000000000001776, -5.267826876426367377, -2.000000000000000000 ) ) ;
#66 = DIRECTION ( 'NONE',  ( -0.000000000000000000, -0.000000000000000000, -1.000000000000000000 ) ) ;
#67 = EDGE_CURVE ( 'NONE', #173, #64, #256, .T. ) ;
#68 = AXIS2_PLACEMENT_3D ( 'NONE', #190, #144, #370 ) ;
#69 = EDGE_LOOP ( 'NONE', ( #230, #404, #271, #187 ) ) ;
#70 = CIRCLE ( 'NONE', #9, 4.999999999999999112 ) ;
#71 = EDGE_CURVE ( 'NONE', #491, #554, #8, .T. ) ;
#72 = DIRECTION ( 'NONE',  ( -0.1736481776669306087, 0.9848077530122081313, 0.000000000000000000 ) ) ;
#73 = CARTESIAN_POINT ( 'NONE',  ( -2.449293598294706414E-16, 8.000000000000000000, 8.000000000000000000 ) ) ;
#74 = VERTEX_POINT ( 'NONE', #375 ) ;
#75 = DIRECTION ( 'NONE',  ( 0.000000000000000000, 0.000000000000000000, 1.000000000000000000 ) ) ;
#76 = DIRECTION ( 'NONE',  ( 0.000000000000000000, 0.000000000000000000, 1.000000000000000000 ) ) ;
#77 = EDGE_LOOP ( 'NONE', ( #224, #381, #122, #178 ) ) ;
#78 = EDGE_CURVE ( 'NONE', #483, #10, #115, .T. ) ;
#79 = DIRECTION ( 'NONE',  ( 1.000000000000000000, 0.000000000000000000, 0.000000000000000000 ) ) ;
#80 = ORIENTED_EDGE ( 'NONE', *, *, #380, .F. ) ;
#81 = AXIS2_PLACEMENT_3D ( 'NONE', #309, #478, #485 ) ;
#82 = CARTESIAN_POINT ( 'NONE',  ( 0.000000000000000000, 0.000000000000000000, 8.000000000000000000 ) ) ;
#83 = ORIENTED_EDGE ( 'NONE', *, *, #430, .F. ) ;
#84 =( NAMED_UNIT ( * ) PLANE_ANGLE_UNIT ( ) SI_UNIT ( $, .RADIAN. ) );
#85 = DIRECTION ( 'NONE',  ( 0.1736481776669314414, 0.9848077530122079093, -0.000000000000000000 ) ) ;
#86 = ORIENTED_EDGE ( 'NONE', *, *, #28, .T. ) ;
#87 = CARTESIAN_POINT ( 'NONE',  ( 0.000000000000000000, 0.000000000000000000, 0.000000000000000000 ) ) ;
#88 = FACE_OUTER_BOUND ( 'NONE', #6, .T. ) ;
#89 = ORIENTED_EDGE ( 'NONE', *, *, #538, .F. ) ;
#90 = ADVANCED_FACE ( 'NONE', ( #425 ), #421, .F. ) ;
#91 = LINE ( 'NONE', #364, #233 ) ;
#92 = VECTOR ( 'NONE', #85, 1000.000000000000000 ) ;
#93 = AXIS2_PLACEMENT_3D ( 'NONE', #127, #395, #353 ) ;
#94 = ORIENTED_EDGE ( 'NONE', *, *, #312, .F. ) ;
#95 = EDGE_CURVE ( 'NONE', #64, #157, #332, .T. ) ;
#96 = DIRECTION ( 'NONE',  ( -1.000000000000000000, 0.000000000000000000, -0.000000000000000000 ) ) ;
#97 = ORIENTED_EDGE ( 'NONE', *, *, #67, .F. ) ;
#98 = CARTESIAN_POINT ( 'NONE',  ( -2.497119946501241472, -5.455675207780026348, 8.000000000000000000 ) ) ;
#99 = ORIENTED_EDGE ( 'NONE', *, *, #55, .T. ) ;
#100 = LINE ( 'NONE', #277, #50 ) ;
#101 = AXIS2_PLACEMENT_3D ( 'NONE', #286, #243, #155 ) ;
#102 =( GEOMETRIC_REPRESENTATION_CONTEXT ( 3 ) GLOBAL_UNCERTAINTY_ASSIGNED_CONTEXT ( ( #126 ) ) GLOBAL_UNIT_ASSIGNED_CONTEXT ( ( #220, #84, #171 ) ) REPRESENTATION_CONTEXT ( 'NONE', 'WORKASPACE' ) );
#103 = LINE ( 'NONE', #279, #192 ) ;
#104 = ORIENTED_EDGE ( 'NONE', *, *, #400, .F. ) ;
#105 = EDGE_CURVE ( 'NONE', #157, #74, #129, .T. ) ;
#106 = CARTESIAN_POINT ( 'NONE',  ( -0.5340238843579830919, 4.971400053398962626, 8.000000000000000000 ) ) ;
#107 = EDGE_CURVE ( 'NONE', #336, #429, #450, .T. ) ;
#108 = FACE_OUTER_BOUND ( 'NONE', #141, .T. ) ;
#109 = CIRCLE ( 'NONE', #101, 4.999999999999999112 ) ;
#110 = EDGE_CURVE ( 'NONE', #119, #507, #566, .T. ) ;
#111 = CARTESIAN_POINT ( 'NONE',  ( 8.500000000000001776, 5.267826876426365601, 0.000000000000000000 ) ) ;
#112 = DIRECTION ( 'NONE',  ( -0.000000000000000000, -0.000000000000000000, 1.000000000000000000 ) ) ;
#113 = ADVANCED_FACE ( 'NONE', ( #379 ), #159, .F. ) ;
#114 = FACE_OUTER_BOUND ( 'NONE', #327, .T. ) ;
#115 = LINE ( 'NONE', #475, #40 ) ;
#116 = ORIENTED_EDGE ( 'NONE', *, *, #492, .T. ) ;
#117 = PLANE ( 'NONE',  #186 ) ;
#118 = CARTESIAN_POINT ( 'NONE',  ( -2.588190451025206507, -9.659258262890682900, 8.000000000000000000 ) ) ;
#119 = VERTEX_POINT ( 'NONE', #12 ) ;
#120 = VECTOR ( 'NONE', #249, 1000.000000000000000 ) ;
#121 = CARTESIAN_POINT ( 'NONE',  ( 0.000000000000000000, 0.000000000000000000, 8.000000000000000000 ) ) ;
#122 = ORIENTED_EDGE ( 'NONE', *, *, #206, .T. ) ;
#123 = EDGE_CURVE ( 'NONE', #356, #253, #412, .T. ) ;
#124 = CYLINDRICAL_SURFACE ( 'NONE', #81, 4.999999999999999112 ) ;
#125 = EDGE_LOOP ( 'NONE', ( #83, #34, #359, #36 ) ) ;
#126 = UNCERTAINTY_MEASURE_WITH_UNIT (LENGTH_MEASURE( 1.000000000000000082E-05 ), #220, 'distance_accuracy_value', 'NONE');
#127 = CARTESIAN_POINT ( 'NONE',  ( 0.000000000000000000, 0.000000000000000000, 8.000000000000000000 ) ) ;
#128 = ORIENTED_EDGE ( 'NONE', *, *, #516, .F. ) ;
#129 = CIRCLE ( 'NONE', #443, 1.000000000000000000 ) ;
#130 = SHAPE_DEFINITION_REPRESENTATION ( #376, #562 ) ;
#131 = FACE_OUTER_BOUND ( 'NONE', #406, .T. ) ;
#132 = ORIENTED_EDGE ( 'NONE', *, *, #298, .F. ) ;
#133 = CARTESIAN_POINT ( 'NONE',  ( 0.000000000000000000, 0.000000000000000000, 0.000000000000000000 ) ) ;
#134 = DIRECTION ( 'NONE',  ( 0.000000000000000000, 0.000000000000000000, 1.000000000000000000 ) ) ;
#135 = EDGE_CURVE ( 'NONE', #14, #435, #161, .T. ) ;
#136 = CARTESIAN_POINT ( 'NONE',  ( -2.449293598294706414E-16, 8.000000000000000000, 0.000000000000000000 ) ) ;
#137 = ORIENTED_EDGE ( 'NONE', *, *, #266, .T. ) ;
#138 = DIRECTION ( 'NONE',  ( -0.000000000000000000, 0.000000000000000000, 1.000000000000000000 ) ) ;
#139 = CIRCLE ( 'NONE', #49, 10.00000000000000000 ) ;
#140 = VECTOR ( 'NONE', #226, 1000.000000000000000 ) ;
#141 = EDGE_LOOP ( 'NONE', ( #293, #99, #398, #213 ) ) ;
#142 = CARTESIAN_POINT ( 'NONE',  ( 8.500000000000001776, -5.267826876426366489, 0.000000000000000000 ) ) ;
#143 = DIRECTION ( 'NONE',  ( 0.9659258262890680902, 0.2588190451025216832, -0.000000000000000000 ) ) ;
#144 = DIRECTION ( 'NONE',  ( 0.000000000000000000, 0.000000000000000000, 1.000000000000000000 ) ) ;
#145 = DIRECTION ( 'NONE',  ( 1.000000000000000000, 0.000000000000000000, 0.000000000000000000 ) ) ;
#146 = CIRCLE ( 'NONE', #502, 4.999999999999999112 ) ;
#147 = CARTESIAN_POINT ( 'NONE',  ( 8.500000000000001776, -5.267826876426365601, -2.000000000000000000 ) ) ;
#148 = CARTESIAN_POINT ( 'NONE',  ( -2.588190451025213168, -9.659258262890681124, 8.000000000000000000 ) ) ;
#149 = ADVANCED_FACE ( 'NONE', ( #234 ), #536, .T. ) ;
#150 = DIRECTION ( 'NONE',  ( 0.000000000000000000, 0.000000000000000000, 1.000000000000000000 ) ) ;
#151 = CARTESIAN_POINT ( 'NONE',  ( 0.000000000000000000, 0.000000000000000000, 0.000000000000000000 ) ) ;
#152 = VECTOR ( 'NONE', #290, 1000.000000000000000 ) ;
#153 = CIRCLE ( 'NONE', #544, 1.000000000000000000 ) ;
#154 = APPLICATION_CONTEXT ( 'automotive_design' ) ;
#155 = DIRECTION ( 'NONE',  ( 1.000000000000000000, 0.000000000000000000, 0.000000000000000000 ) ) ;
#156 = DIRECTION ( 'NONE',  ( 1.000000000000000000, 0.000000000000000000, 0.000000000000000000 ) ) ;
#157 = VERTEX_POINT ( 'NONE', #53 ) ;
#158 = DIRECTION ( 'NONE',  ( -0.000000000000000000, -0.000000000000000000, -1.000000000000000000 ) ) ;
#159 = PLANE ( 'NONE',  #200 ) ;
#160 = ORIENTED_EDGE ( 'NONE', *, *, #95, .T. ) ;
#161 = LINE ( 'NONE', #299, #324 ) ;
#162 = EDGE_CURVE ( 'NONE', #483, #119, #103, .T. ) ;
#163 = AXIS2_PLACEMENT_3D ( 'NONE', #121, #454, #292 ) ;
#164 = ORIENTED_EDGE ( 'NONE', *, *, #459, .T. ) ;
#165 = AXIS2_PLACEMENT_3D ( 'NONE', #320, #96, #138 ) ;
#166 = LINE ( 'NONE', #311, #305 ) ;
#167 = ORIENTED_EDGE ( 'NONE', *, *, #162, .T. ) ;
#168 = CARTESIAN_POINT ( 'NONE',  ( 8.500000000000001776, -5.267826876426365601, 8.000000000000000000 ) ) ;
#169 = ORIENTED_EDGE ( 'NONE', *, *, #105, .F. ) ;
#170 = PRODUCT_DEFINITION_CONTEXT ( 'detailed design', #274, 'design' ) ;
#171 =( NAMED_UNIT ( * ) SI_UNIT ( $, .STERADIAN. ) SOLID_ANGLE_UNIT ( ) );
#172 = DIRECTION ( 'NONE',  ( -0.000000000000000000, -0.000000000000000000, -1.000000000000000000 ) ) ;
#173 = VERTEX_POINT ( 'NONE', #179 ) ;
#174 = VECTOR ( 'NONE', #335, 1000.000000000000000 ) ;
#175 = VECTOR ( 'NONE', #23, 1000.000000000000000 ) ;
#176 = DIRECTION ( 'NONE',  ( 1.000000000000000000, 0.000000000000000000, 0.000000000000000000 ) ) ;
#177 = EDGE_CURVE ( 'NONE', #446, #561, #16, .T. ) ;
#178 = ORIENTED_EDGE ( 'NONE', *, *, #196, .F. ) ;
#179 = CARTESIAN_POINT ( 'NONE',  ( -1.531194120212173271, -5.714494252882547087, 8.000000000000000000 ) ) ;
#180 = ORIENTED_EDGE ( 'NONE', *, *, #312, .T. ) ;
#181 = DIRECTION ( 'NONE',  ( 0.1736481776669314414, 0.9848077530122079093, -0.000000000000000000 ) ) ;
#182 = ADVANCED_FACE ( 'NONE', ( #560 ), #436, .F. ) ;
#183 = ORIENTED_EDGE ( 'NONE', *, *, #18, .T. ) ;
#184 = DIRECTION ( 'NONE',  ( -0.000000000000000000, -0.000000000000000000, -1.000000000000000000 ) ) ;
#185 = AXIS2_PLACEMENT_3D ( 'NONE', #82, #172, #212 ) ;
#186 = AXIS2_PLACEMENT_3D ( 'NONE', #294, #458, #72 ) ;
#187 = ORIENTED_EDGE ( 'NONE', *, *, #123, .T. ) ;
#188 = CARTESIAN_POINT ( 'NONE',  ( -2.588190451025206507, -9.659258262890682900, 8.000000000000000000 ) ) ;
#189 = CARTESIAN_POINT ( 'NONE',  ( -2.080933288751034560, -4.546396006483354846, 8.000000000000000000 ) ) ;
#190 = CARTESIAN_POINT ( 'NONE',  ( 0.000000000000000000, 0.000000000000000000, 8.000000000000000000 ) ) ;
#191 = PRESENTATION_STYLE_ASSIGNMENT (( #358 ) ) ;
#192 = VECTOR ( 'NONE', #112, 1000.000000000000000 ) ;
#193 = AXIS2_PLACEMENT_3D ( 'NONE', #328, #150, #470 ) ;
#194 = EDGE_CURVE ( 'NONE', #275, #356, #361, .T. ) ;
#195 = CYLINDRICAL_SURFACE ( 'NONE', #58, 10.00000000000000000 ) ;
#196 = EDGE_CURVE ( 'NONE', #435, #310, #30, .T. ) ;
#197 = CARTESIAN_POINT ( 'NONE',  ( 2.080933288751036780, -4.546396006483353069, 8.000000000000000000 ) ) ;
#198 = DIRECTION ( 'NONE',  ( 0.000000000000000000, 0.000000000000000000, 1.000000000000000000 ) ) ;
#199 = CARTESIAN_POINT ( 'NONE',  ( 1.531194120212176157, -5.714494252882547087, 8.000000000000000000 ) ) ;
#200 = AXIS2_PLACEMENT_3D ( 'NONE', #73, #428, #27 ) ;
#201 = AXIS2_PLACEMENT_3D ( 'NONE', #205, #198, #242 ) ;
#202 = CARTESIAN_POINT ( 'NONE',  ( 2.588190451025216721, -9.659258262890679347, 8.000000000000000000 ) ) ;
#203 = DIRECTION ( 'NONE',  ( 1.000000000000000000, -3.469446951953614189E-15, 0.000000000000000000 ) ) ;
#204 = ORIENTED_EDGE ( 'NONE', *, *, #45, .F. ) ;
#205 = CARTESIAN_POINT ( 'NONE',  ( 0.000000000000000000, 0.000000000000000000, 8.000000000000000000 ) ) ;
#206 = EDGE_CURVE ( 'NONE', #25, #310, #209, .T. ) ;
#207 = DIRECTION ( 'NONE',  ( 0.000000000000000000, -1.000000000000000000, 0.000000000000000000 ) ) ;
#208 = ORIENTED_EDGE ( 'NONE', *, *, #107, .T. ) ;
#209 = LINE ( 'NONE', #35, #490 ) ;
#210 = ADVANCED_FACE ( 'NONE', ( #442 ), #33, .T. ) ;
#211 = VERTEX_POINT ( 'NONE', #168 ) ;
#212 = DIRECTION ( 'NONE',  ( -1.000000000000000000, 0.000000000000000000, 0.000000000000000000 ) ) ;
#213 = ORIENTED_EDGE ( 'NONE', *, *, #510, .F. ) ;
#214 = PRODUCT_CONTEXT ( 'NONE', #154, 'mechanical' ) ;
#215 = DIRECTION ( 'NONE',  ( -0.000000000000000000, -0.000000000000000000, 1.000000000000000000 ) ) ;
#216 = EDGE_CURVE ( 'NONE', #429, #514, #399, .T. ) ;
#217 = ORIENTED_EDGE ( 'NONE', *, *, #473, .F. ) ;
#218 = FILL_AREA_STYLE ('',( #390 ) ) ;
#219 = VERTEX_POINT ( 'NONE', #518 ) ;
#220 =( LENGTH_UNIT ( ) NAMED_UNIT ( * ) SI_UNIT ( .MILLI., .METRE. ) );
#221 = VECTOR ( 'NONE', #15, 1000.000000000000114 ) ;
#222 = AXIS2_PLACEMENT_3D ( 'NONE', #551, #467, #338 ) ;
#223 = DIRECTION ( 'NONE',  ( -0.000000000000000000, -0.000000000000000000, -1.000000000000000000 ) ) ;
#224 = ORIENTED_EDGE ( 'NONE', *, *, #135, .F. ) ;
#225 = UNCERTAINTY_MEASURE_WITH_UNIT (LENGTH_MEASURE( 1.000000000000000082E-05 ), #495, 'distance_accuracy_value', 'NONE');
#226 = DIRECTION ( 'NONE',  ( -0.000000000000000000, -0.000000000000000000, 1.000000000000000000 ) ) ;
#227 = EDGE_CURVE ( 'NONE', #476, #514, #146, .T. ) ;
#228 = LINE ( 'NONE', #532, #57 ) ;
#229 = CARTESIAN_POINT ( 'NONE',  ( -2.449293598294706414E-16, 8.000000000000000000, 8.000000000000000000 ) ) ;
#230 = ORIENTED_EDGE ( 'NONE', *, *, #238, .T. ) ;
#231 = VECTOR ( 'NONE', #246, 1000.000000000000000 ) ;
#232 = CYLINDRICAL_SURFACE ( 'NONE', #512, 10.00000000000000000 ) ;
#233 = VECTOR ( 'NONE', #489, 1000.000000000000000 ) ;
#234 = FACE_OUTER_BOUND ( 'NONE', #269, .T. ) ;
#235 = FACE_OUTER_BOUND ( 'NONE', #77, .T. ) ;
#236 = DIRECTION ( 'NONE',  ( 1.000000000000000000, 0.000000000000000000, 0.000000000000000000 ) ) ;
#237 = PLANE ( 'NONE',  #451 ) ;
#238 = EDGE_CURVE ( 'NONE', #253, #336, #355, .T. ) ;
#239 = FACE_OUTER_BOUND ( 'NONE', #69, .T. ) ;
#240 = AXIS2_PLACEMENT_3D ( 'NONE', #533, #268, #145 ) ;
#241 = PRODUCT_DEFINITION_FORMATION_WITH_SPECIFIED_SOURCE ( 'ไป', '', #383, .NOT_KNOWN. ) ;
#242 = DIRECTION ( 'NONE',  ( 1.000000000000000000, 0.000000000000000000, 0.000000000000000000 ) ) ;
#243 = DIRECTION ( 'NONE',  ( -0.000000000000000000, -0.000000000000000000, -1.000000000000000000 ) ) ;
#244 = LINE ( 'NONE', #339, #174 ) ;
#245 = CARTESIAN_POINT ( 'NONE',  ( -8.500000000000001776, 5.267826876426367377, 8.000000000000000000 ) ) ;
#246 = DIRECTION ( 'NONE',  ( -0.000000000000000000, -0.000000000000000000, -1.000000000000000000 ) ) ;
#247 = VECTOR ( 'NONE', #542, 1000.000000000000000 ) ;
#248 = ORIENTED_EDGE ( 'NONE', *, *, #206, .F. ) ;
#249 = DIRECTION ( 'NONE',  ( -0.000000000000000000, -0.000000000000000000, 1.000000000000000000 ) ) ;
#250 = CARTESIAN_POINT ( 'NONE',  ( -2.497119946501241472, -5.455675207780026348, 0.000000000000000000 ) ) ;
#251 = ORIENTED_EDGE ( 'NONE', *, *, #538, .T. ) ;
#252 = CARTESIAN_POINT ( 'NONE',  ( -1.531194120212173715, -5.714494252882547976, 8.000000000000000000 ) ) ;
#253 = VERTEX_POINT ( 'NONE', #259 ) ;
#254 = EDGE_CURVE ( 'NONE', #64, #517, #326, .T. ) ;
#255 = CARTESIAN_POINT ( 'NONE',  ( 2.588190451025216721, -9.659258262890679347, 8.000000000000000000 ) ) ;
#256 = CIRCLE ( 'NONE', #373, 1.000000000000000000 ) ;
#257 = MECHANICAL_DESIGN_GEOMETRIC_PRESENTATION_REPRESENTATION (  '', ( #374 ), #32 ) ;
#258 = ORIENTED_EDGE ( 'NONE', *, *, #280, .F. ) ;
#259 = CARTESIAN_POINT ( 'NONE',  ( -2.449293598294706414E-16, 8.000000000000000000, 0.000000000000000000 ) ) ;
#260 = ORIENTED_EDGE ( 'NONE', *, *, #55, .F. ) ;
#261 = APPLICATION_PROTOCOL_DEFINITION ( 'draft international standard', 'automotive_design', 1998, #274 ) ;
#262 = DIRECTION ( 'NONE',  ( -0.000000000000000000, 1.000000000000000000, -0.000000000000000000 ) ) ;
#263 = ORIENTED_EDGE ( 'NONE', *, *, #329, .F. ) ;
#264 = CARTESIAN_POINT ( 'NONE',  ( -2.449293598294706414E-16, 8.000000000000000000, 8.000000000000000000 ) ) ;
#265 = DIRECTION ( 'NONE',  ( 1.000000000000000000, 0.000000000000000000, 0.000000000000000000 ) ) ;
#266 = EDGE_CURVE ( 'NONE', #550, #507, #166, .T. ) ;
#267 = CIRCLE ( 'NONE', #462, 1.000000000000000000 ) ;
#268 = DIRECTION ( 'NONE',  ( 0.000000000000000000, 0.000000000000000000, 1.000000000000000000 ) ) ;
#269 = EDGE_LOOP ( 'NONE', ( #301, #116, #472, #306, #47, #164, #564, #413, #313, #204, #455, #352, #449, #20, #486 ) ) ;
#270 = CARTESIAN_POINT ( 'NONE',  ( 1.294095225512608360, -4.829629131445338786, 8.000000000000000000 ) ) ;
#271 = ORIENTED_EDGE ( 'NONE', *, *, #340, .F. ) ;
#272 = EDGE_CURVE ( 'NONE', #219, #14, #482, .T. ) ;
#273 = DIRECTION ( 'NONE',  ( -0.000000000000000000, -0.000000000000000000, -1.000000000000000000 ) ) ;
#274 = APPLICATION_CONTEXT ( 'automotive_design' ) ;
#275 = VERTEX_POINT ( 'NONE', #487 ) ;
#276 = AXIS2_PLACEMENT_3D ( 'NONE', #151, #66, #236 ) ;
#277 = CARTESIAN_POINT ( 'NONE',  ( -2.449293598294706414E-16, 8.000000000000000000, 0.000000000000000000 ) ) ;
#278 = COLOUR_RGB ( '',0.7921568627450980005, 0.8196078431372548767, 0.9333333333333333481 ) ;
#279 = CARTESIAN_POINT ( 'NONE',  ( 8.500000000000001776, 5.267826876426365601, -2.000000000000000000 ) ) ;
#280 = EDGE_CURVE ( 'NONE', #74, #173, #302, .T. ) ;
#281 = ORIENTED_EDGE ( 'NONE', *, *, #387, .T. ) ;
#282 = LINE ( 'NONE', #445, #221 ) ;
#283 = ORIENTED_EDGE ( 'NONE', *, *, #123, .F. ) ;
#284 = DIRECTION ( 'NONE',  ( -0.000000000000000000, -0.000000000000000000, -1.000000000000000000 ) ) ;
#285 = ADVANCED_FACE ( 'NONE', ( #88 ), #393, .F. ) ;
#286 = CARTESIAN_POINT ( 'NONE',  ( 0.000000000000000000, 0.000000000000000000, 8.000000000000000000 ) ) ;
#287 = CIRCLE ( 'NONE', #201, 10.00000000000000000 ) ;
#288 = ORIENTED_EDGE ( 'NONE', *, *, #105, .T. ) ;
#289 = DIRECTION ( 'NONE',  ( -1.000000000000000000, 0.000000000000000000, 0.000000000000000000 ) ) ;
#290 = DIRECTION ( 'NONE',  ( 0.000000000000000000, 1.000000000000000000, 0.000000000000000000 ) ) ;
#291 = CARTESIAN_POINT ( 'NONE',  ( -2.588190451025213168, -9.659258262890681124, 8.000000000000000000 ) ) ;
#292 = DIRECTION ( 'NONE',  ( -1.000000000000000000, 0.000000000000000000, 0.000000000000000000 ) ) ;
#293 = ORIENTED_EDGE ( 'NONE', *, *, #272, .F. ) ;
#294 = CARTESIAN_POINT ( 'NONE',  ( -2.449293598294706414E-16, 8.000000000000000000, 8.000000000000000000 ) ) ;
#295 = LINE ( 'NONE', #384, #152 ) ;
#296 = AXIS2_PLACEMENT_3D ( 'NONE', #24, #549, #509 ) ;
#297 = ORIENTED_EDGE ( 'NONE', *, *, #2, .T. ) ;
#298 = EDGE_CURVE ( 'NONE', #488, #507, #431, .T. ) ;
#299 = CARTESIAN_POINT ( 'NONE',  ( 1.294095225512608360, -4.829629131445338786, 8.000000000000000000 ) ) ;
#300 = ADVANCED_FACE ( 'NONE', ( #131 ), #124, .F. ) ;
#301 = ORIENTED_EDGE ( 'NONE', *, *, #254, .T. ) ;
#302 = LINE ( 'NONE', #252, #531 ) ;
#303 = ORIENTED_EDGE ( 'NONE', *, *, #367, .F. ) ;
#304 = CARTESIAN_POINT ( 'NONE',  ( 2.080933288751037669, -4.546396006483354846, 8.000000000000000000 ) ) ;
#305 = VECTOR ( 'NONE', #262, 1000.000000000000000 ) ;
#306 = ORIENTED_EDGE ( 'NONE', *, *, #340, .T. ) ;
#307 = AXIS2_PLACEMENT_3D ( 'NONE', #148, #520, #484 ) ;
#308 = MANIFOLD_SOLID_BREP ( '\X2\52079664\X0\-\X2\62c94f38\X0\2', #407 ) ;
#309 = CARTESIAN_POINT ( 'NONE',  ( 0.000000000000000000, 0.000000000000000000, 8.000000000000000000 ) ) ;
#310 = VERTEX_POINT ( 'NONE', #415 ) ;
#311 = CARTESIAN_POINT ( 'NONE',  ( -8.500000000000001776, 5.267826876426367377, 8.000000000000000000 ) ) ;
#312 = EDGE_CURVE ( 'NONE', #157, #491, #70, .T. ) ;
#313 = ORIENTED_EDGE ( 'NONE', *, *, #473, .T. ) ;
#314 = DIRECTION ( 'NONE',  ( 0.1736481776669306087, -0.9848077530122080203, 0.000000000000000000 ) ) ;
#315 = EDGE_LOOP ( 'NONE', ( #104, #422, #94, #288, #80, #348, #86, #128, #54, #524, #248, #281, #494, #391, #44 ) ) ;
#316 = AXIS2_PLACEMENT_3D ( 'NONE', #386, #223, #557 ) ;
#317 = AXIS2_PLACEMENT_3D ( 'NONE', #403, #456, #4 ) ;
#318 = DIRECTION ( 'NONE',  ( 0.1736481776669306087, -0.9848077530122080203, 0.000000000000000000 ) ) ;
#319 = DIRECTION ( 'NONE',  ( -0.000000000000000000, -0.000000000000000000, -1.000000000000000000 ) ) ;
#320 = CARTESIAN_POINT ( 'NONE',  ( 8.500000000000001776, 5.267826876426365601, -2.000000000000000000 ) ) ;
#321 = ORIENTED_EDGE ( 'NONE', *, *, #216, .F. ) ;
#322 = FACE_OUTER_BOUND ( 'NONE', #38, .T. ) ;
#323 = LINE ( 'NONE', #118, #231 ) ;
#324 = VECTOR ( 'NONE', #363, 1000.000000000000114 ) ;
#325 = LINE ( 'NONE', #43, #417 ) ;
#326 = CIRCLE ( 'NONE', #93, 4.999999999999999112 ) ;
#327 = EDGE_LOOP ( 'NONE', ( #260, #426, #321, #303 ) ) ;
#328 = CARTESIAN_POINT ( 'NONE',  ( 0.000000000000000000, 0.000000000000000000, 0.000000000000000000 ) ) ;
#329 = EDGE_CURVE ( 'NONE', #10, #211, #405, .T. ) ;
#330 = CARTESIAN_POINT ( 'NONE',  ( 2.497119946501244581, -5.455675207780025460, 8.000000000000000000 ) ) ;
#331 = CARTESIAN_POINT ( 'NONE',  ( 0.5340238843579798722, 4.971400053398962626, 8.000000000000000000 ) ) ;
#332 = LINE ( 'NONE', #63, #247 ) ;
#333 = ORIENTED_EDGE ( 'NONE', *, *, #28, .F. ) ;
#334 = DIRECTION ( 'NONE',  ( -1.000000000000000000, 0.000000000000000000, 0.000000000000000000 ) ) ;
#335 = DIRECTION ( 'NONE',  ( 0.000000000000000000, -1.000000000000000000, 0.000000000000000000 ) ) ;
#336 = VERTEX_POINT ( 'NONE', #365 ) ;
#337 = ADVANCED_FACE ( 'NONE', ( #235 ), #237, .F. ) ;
#338 = DIRECTION ( 'NONE',  ( -1.000000000000000000, 0.000000000000000000, 0.000000000000000000 ) ) ;
#339 = CARTESIAN_POINT ( 'NONE',  ( 8.500000000000001776, 5.267826876426365601, 8.000000000000000000 ) ) ;
#340 = EDGE_CURVE ( 'NONE', #356, #476, #325, .T. ) ;
#341 = EDGE_LOOP ( 'NONE', ( #394, #283, #511, #251 ) ) ;
#342 = DIRECTION ( 'NONE',  ( 1.000000000000000000, 0.000000000000000000, 0.000000000000000000 ) ) ;
#343 = AXIS2_PLACEMENT_3D ( 'NONE', #515, #79, #563 ) ;
#344 = ORIENTED_EDGE ( 'NONE', *, *, #162, .F. ) ;
#345 = CARTESIAN_POINT ( 'NONE',  ( -8.500000000000001776, 5.267826876426367377, -2.000000000000000000 ) ) ;
#346 = VERTEX_POINT ( 'NONE', #188 ) ;
#347 = DIRECTION ( 'NONE',  ( 0.000000000000000000, 0.000000000000000000, 1.000000000000000000 ) ) ;
#348 = ORIENTED_EDGE ( 'NONE', *, *, #177, .F. ) ;
#349 = APPLICATION_PROTOCOL_DEFINITION ( 'draft international standard', 'automotive_design', 1998, #154 ) ;
#350 = DIRECTION ( 'NONE',  ( 1.000000000000000000, 0.000000000000000000, 0.000000000000000000 ) ) ;
#351 = VECTOR ( 'NONE', #545, 1000.000000000000114 ) ;
#352 = ORIENTED_EDGE ( 'NONE', *, *, #266, .F. ) ;
#353 = DIRECTION ( 'NONE',  ( 1.000000000000000000, 0.000000000000000000, 0.000000000000000000 ) ) ;
#354 = EDGE_LOOP ( 'NONE', ( #447, #137, #132, #333 ) ) ;
#355 = LINE ( 'NONE', #136, #397 ) ;
#356 = VERTEX_POINT ( 'NONE', #229 ) ;
#357 = ADVANCED_FACE ( 'NONE', ( #322 ), #453, .F. ) ;
#358 = SURFACE_STYLE_USAGE ( .BOTH. , #409 ) ;
#359 = ORIENTED_EDGE ( 'NONE', *, *, #18, .F. ) ;
#360 = CYLINDRICAL_SURFACE ( 'NONE', #388, 1.000000000000000000 ) ;
#361 = LINE ( 'NONE', #264, #92 ) ;
#362 = CARTESIAN_POINT ( 'NONE',  ( 0.000000000000000000, 0.000000000000000000, 8.000000000000000000 ) ) ;
#363 = DIRECTION ( 'NONE',  ( 0.2588190451025216277, -0.9659258262890679791, 0.000000000000000000 ) ) ;
#364 = CARTESIAN_POINT ( 'NONE',  ( 0.5340238843579798722, 4.971400053398962626, 8.000000000000000000 ) ) ;
#365 = CARTESIAN_POINT ( 'NONE',  ( 0.5340238843579798722, 4.971400053398962626, 0.000000000000000000 ) ) ;
#366 = AXIS2_PLACEMENT_3D ( 'NONE', #87, #75, #392 ) ;
#367 = EDGE_CURVE ( 'NONE', #60, #429, #153, .T. ) ;
#368 = CARTESIAN_POINT ( 'NONE',  ( 0.000000000000000000, 0.000000000000000000, 8.000000000000000000 ) ) ;
#369 = DIRECTION ( 'NONE',  ( 0.000000000000000000, 0.000000000000000000, 1.000000000000000000 ) ) ;
#370 = DIRECTION ( 'NONE',  ( 1.000000000000000000, 0.000000000000000000, -0.000000000000000000 ) ) ;
#371 = EDGE_CURVE ( 'NONE', #476, #336, #91, .T. ) ;
#372 = FACE_OUTER_BOUND ( 'NONE', #315, .T. ) ;
#373 = AXIS2_PLACEMENT_3D ( 'NONE', #506, #410, #342 ) ;
#374 = STYLED_ITEM ( 'NONE', ( #191 ), #308 ) ;
#375 = CARTESIAN_POINT ( 'NONE',  ( -1.531194120212173271, -5.714494252882547087, 0.000000000000000000 ) ) ;
#376 = PRODUCT_DEFINITION_SHAPE ( 'NONE', 'NONE',  #62 ) ;
#377 = EDGE_CURVE ( 'NONE', #550, #346, #567, .T. ) ;
#378 = DIRECTION ( 'NONE',  ( -0.000000000000000000, -0.000000000000000000, -1.000000000000000000 ) ) ;
#379 = FACE_OUTER_BOUND ( 'NONE', #341, .T. ) ;
#380 = EDGE_CURVE ( 'NONE', #561, #74, #282, .T. ) ;
#381 = ORIENTED_EDGE ( 'NONE', *, *, #510, .T. ) ;
#382 = DIRECTION ( 'NONE',  ( 1.000000000000000000, 0.000000000000000000, 0.000000000000000000 ) ) ;
#383 = PRODUCT ( 'remover2', 'remover2', '', ( #214 ) ) ;
#384 = CARTESIAN_POINT ( 'NONE',  ( -8.500000000000001776, 0.000000000000000000, 0.000000000000000000 ) ) ;
#385 = ORIENTED_EDGE ( 'NONE', *, *, #5, .T. ) ;
#386 = CARTESIAN_POINT ( 'NONE',  ( 0.000000000000000000, 0.000000000000000000, 8.000000000000000000 ) ) ;
#387 = EDGE_CURVE ( 'NONE', #25, #60, #556, .T. ) ;
#388 = AXIS2_PLACEMENT_3D ( 'NONE', #98, #273, #448 ) ;
#389 = ORIENTED_EDGE ( 'NONE', *, *, #380, .T. ) ;
#390 = FILL_AREA_STYLE_COLOUR ( '', #278 ) ;
#391 = ORIENTED_EDGE ( 'NONE', *, *, #107, .F. ) ;
#392 = DIRECTION ( 'NONE',  ( 1.000000000000000000, 0.000000000000000000, 0.000000000000000000 ) ) ;
#393 = CYLINDRICAL_SURFACE ( 'NONE', #185, 4.999999999999999112 ) ;
#394 = ORIENTED_EDGE ( 'NONE', *, *, #400, .T. ) ;
#395 = DIRECTION ( 'NONE',  ( -0.000000000000000000, -0.000000000000000000, -1.000000000000000000 ) ) ;
#396 = AXIS2_PLACEMENT_3D ( 'NONE', #133, #527, #350 ) ;
#397 = VECTOR ( 'NONE', #314, 1000.000000000000114 ) ;
#398 = ORIENTED_EDGE ( 'NONE', *, *, #387, .F. ) ;
#399 = LINE ( 'NONE', #304, #555 ) ;
#400 = EDGE_CURVE ( 'NONE', #554, #253, #100, .T. ) ;
#401 = ORIENTED_EDGE ( 'NONE', *, *, #196, .T. ) ;
#402 = ADVANCED_FACE ( 'NONE', ( #7 ), #360, .T. ) ;
#403 = CARTESIAN_POINT ( 'NONE',  ( 2.497119946501244581, -5.455675207780025460, 0.000000000000000000 ) ) ;
#404 = ORIENTED_EDGE ( 'NONE', *, *, #371, .F. ) ;
#405 = LINE ( 'NONE', #147, #140 ) ;
#406 = EDGE_LOOP ( 'NONE', ( #3, #432, #208, #466 ) ) ;
#407 = CLOSED_SHELL ( 'NONE', ( #460, #90, #285, #149, #441, #439, #210, #300, #337, #414, #553, #402, #497, #357, #182, #113, #528 ) ) ;
#408 = AXIS2_PLACEMENT_3D ( 'NONE', #480, #76, #438 ) ;
#409 = SURFACE_SIDE_STYLE ('',( #565 ) ) ;
#410 = DIRECTION ( 'NONE',  ( 0.000000000000000000, 0.000000000000000000, 1.000000000000000000 ) ) ;
#411 = DIRECTION ( 'NONE',  ( -0.000000000000000000, -0.000000000000000000, -1.000000000000000000 ) ) ;
#412 = LINE ( 'NONE', #465, #424 ) ;
#413 = ORIENTED_EDGE ( 'NONE', *, *, #135, .T. ) ;
#414 = ADVANCED_FACE ( 'NONE', ( #48 ), #232, .T. ) ;
#415 = CARTESIAN_POINT ( 'NONE',  ( 2.588190451025216721, -9.659258262890679347, 0.000000000000000000 ) ) ;
#416 = FACE_OUTER_BOUND ( 'NONE', #526, .T. ) ;
#417 = VECTOR ( 'NONE', #318, 1000.000000000000114 ) ;
#418 = CARTESIAN_POINT ( 'NONE',  ( 1.531194120212176157, -5.714494252882547087, 8.000000000000000000 ) ) ;
#419 = PRODUCT_RELATED_PRODUCT_CATEGORY ( 'part', '', ( #383 ) ) ;
#420 = PLANE ( 'NONE',  #193 ) ;
#421 = CYLINDRICAL_SURFACE ( 'NONE', #163, 4.999999999999999112 ) ;
#422 = ORIENTED_EDGE ( 'NONE', *, *, #71, .F. ) ;
#423 = LINE ( 'NONE', #418, #175 ) ;
#424 = VECTOR ( 'NONE', #504, 1000.000000000000000 ) ;
#425 = FACE_OUTER_BOUND ( 'NONE', #519, .T. ) ;
#426 = ORIENTED_EDGE ( 'NONE', *, *, #459, .F. ) ;
#427 = FACE_OUTER_BOUND ( 'NONE', #125, .T. ) ;
#428 = DIRECTION ( 'NONE',  ( -0.9848077530122079093, 0.1736481776669314137, 0.000000000000000000 ) ) ;
#429 = VERTEX_POINT ( 'NONE', #21 ) ;
#430 = EDGE_CURVE ( 'NONE', #446, #550, #548, .T. ) ;
#431 = LINE ( 'NONE', #345, #41 ) ;
#432 = ORIENTED_EDGE ( 'NONE', *, *, #371, .T. ) ;
#433 = DIRECTION ( 'NONE',  ( 0.2588190451025216277, -0.9659258262890679791, 0.000000000000000000 ) ) ;
#434 = CIRCLE ( 'NONE', #452, 10.00000000000000000 ) ;
#435 = VERTEX_POINT ( 'NONE', #202 ) ;
#436 = PLANE ( 'NONE',  #343 ) ;
#437 = ORIENTED_EDGE ( 'NONE', *, *, #477, .F. ) ;
#438 = DIRECTION ( 'NONE',  ( 1.000000000000000000, 0.000000000000000000, 0.000000000000000000 ) ) ;
#439 = ADVANCED_FACE ( 'NONE', ( #427 ), #195, .T. ) ;
#440 = ORIENTED_EDGE ( 'NONE', *, *, #298, .T. ) ;
#441 = ADVANCED_FACE ( 'NONE', ( #372 ), #420, .F. ) ;
#442 = FACE_OUTER_BOUND ( 'NONE', #51, .T. ) ;
#443 = AXIS2_PLACEMENT_3D ( 'NONE', #250, #468, #203 ) ;
#444 = ORIENTED_EDGE ( 'NONE', *, *, #280, .T. ) ;
#445 = CARTESIAN_POINT ( 'NONE',  ( -2.588190451025213168, -9.659258262890681124, 0.000000000000000000 ) ) ;
#446 = VERTEX_POINT ( 'NONE', #464 ) ;
#447 = ORIENTED_EDGE ( 'NONE', *, *, #430, .T. ) ;
#448 = DIRECTION ( 'NONE',  ( -1.000000000000000000, 0.000000000000000000, 0.000000000000000000 ) ) ;
#449 = ORIENTED_EDGE ( 'NONE', *, *, #377, .T. ) ;
#450 = CIRCLE ( 'NONE', #276, 4.999999999999999112 ) ;
#451 = AXIS2_PLACEMENT_3D ( 'NONE', #270, #143, #537 ) ;
#452 = AXIS2_PLACEMENT_3D ( 'NONE', #541, #369, #382 ) ;
#453 = PLANE ( 'NONE',  #165 ) ;
#454 = DIRECTION ( 'NONE',  ( -0.000000000000000000, -0.000000000000000000, -1.000000000000000000 ) ) ;
#455 = ORIENTED_EDGE ( 'NONE', *, *, #110, .T. ) ;
#456 = DIRECTION ( 'NONE',  ( -0.000000000000000000, -0.000000000000000000, -1.000000000000000000 ) ) ;
#457 = EDGE_LOOP ( 'NONE', ( #385, #568, #217, #401 ) ) ;
#458 = DIRECTION ( 'NONE',  ( 0.9848077530122081313, 0.1736481776669306087, -0.000000000000000000 ) ) ;
#459 = EDGE_CURVE ( 'NONE', #514, #219, #267, .T. ) ;
#460 = ADVANCED_FACE ( 'NONE', ( #108 ), #499, .T. ) ;
#461 = CARTESIAN_POINT ( 'NONE',  ( -4.999999999999999112, 0.000000000000000000, 0.000000000000000000 ) ) ;
#462 = AXIS2_PLACEMENT_3D ( 'NONE', #330, #501, #26 ) ;
#463 = ORIENTED_EDGE ( 'NONE', *, *, #71, .T. ) ;
#464 = CARTESIAN_POINT ( 'NONE',  ( -8.500000000000001776, -5.267826876426367377, 0.000000000000000000 ) ) ;
#465 = CARTESIAN_POINT ( 'NONE',  ( -2.449293598294706414E-16, 8.000000000000000000, 8.000000000000000000 ) ) ;
#466 = ORIENTED_EDGE ( 'NONE', *, *, #216, .T. ) ;
#467 = DIRECTION ( 'NONE',  ( -0.000000000000000000, -0.000000000000000000, -1.000000000000000000 ) ) ;
#468 = DIRECTION ( 'NONE',  ( -0.000000000000000000, -0.000000000000000000, -1.000000000000000000 ) ) ;
#469 = ORIENTED_EDGE ( 'NONE', *, *, #254, .F. ) ;
#470 = DIRECTION ( 'NONE',  ( 1.000000000000000000, 0.000000000000000000, -0.000000000000000000 ) ) ;
#471 = CARTESIAN_POINT ( 'NONE',  ( 1.497119946501244359, -5.455675207780025460, 0.000000000000000000 ) ) ;
#472 = ORIENTED_EDGE ( 'NONE', *, *, #194, .T. ) ;
#473 = EDGE_CURVE ( 'NONE', #435, #211, #287, .T. ) ;
#474 = CARTESIAN_POINT ( 'NONE',  ( -2.588190451025206507, -9.659258262890682900, 0.000000000000000000 ) ) ;
#475 = CARTESIAN_POINT ( 'NONE',  ( 8.500000000000001776, 0.000000000000000000, 0.000000000000000000 ) ) ;
#476 = VERTEX_POINT ( 'NONE', #331 ) ;
#477 = EDGE_CURVE ( 'NONE', #346, #173, #19, .T. ) ;
#478 = DIRECTION ( 'NONE',  ( -0.000000000000000000, -0.000000000000000000, -1.000000000000000000 ) ) ;
#479 = ORIENTED_EDGE ( 'NONE', *, *, #110, .F. ) ;
#480 = CARTESIAN_POINT ( 'NONE',  ( 2.497119946501244581, -5.455675207780025460, 8.000000000000000000 ) ) ;
#481 = VECTOR ( 'NONE', #513, 1000.000000000000000 ) ;
#482 = CIRCLE ( 'NONE', #408, 1.000000000000000000 ) ;
#483 = VERTEX_POINT ( 'NONE', #111 ) ;
#484 = DIRECTION ( 'NONE',  ( -0.2588190451025212946, -0.9659258262890682012, 0.000000000000000000 ) ) ;
#485 = DIRECTION ( 'NONE',  ( -1.000000000000000000, 0.000000000000000000, 0.000000000000000000 ) ) ;
#486 = ORIENTED_EDGE ( 'NONE', *, *, #67, .T. ) ;
#487 = CARTESIAN_POINT ( 'NONE',  ( -0.5340238843579830919, 4.971400053398962626, 8.000000000000000000 ) ) ;
#488 = VERTEX_POINT ( 'NONE', #61 ) ;
#489 = DIRECTION ( 'NONE',  ( -0.000000000000000000, -0.000000000000000000, -1.000000000000000000 ) ) ;
#490 = VECTOR ( 'NONE', #433, 1000.000000000000114 ) ;
#491 = VERTEX_POINT ( 'NONE', #461 ) ;
#492 = EDGE_CURVE ( 'NONE', #517, #275, #109, .T. ) ;
#493 = ORIENTED_EDGE ( 'NONE', *, *, #2, .F. ) ;
#494 = ORIENTED_EDGE ( 'NONE', *, *, #367, .T. ) ;
#495 =( LENGTH_UNIT ( ) NAMED_UNIT ( * ) SI_UNIT ( .MILLI., .METRE. ) );
#496 = CARTESIAN_POINT ( 'NONE',  ( 1.531194120212176157, -5.714494252882547087, 0.000000000000000000 ) ) ;
#497 = ADVANCED_FACE ( 'NONE', ( #114 ), #505, .T. ) ;
#498 = LINE ( 'NONE', #106, #503 ) ;
#499 = CYLINDRICAL_SURFACE ( 'NONE', #523, 1.000000000000000000 ) ;
#500 = PRESENTATION_LAYER_ASSIGNMENT (  '', '', ( #374 ) ) ;
#501 = DIRECTION ( 'NONE',  ( 0.000000000000000000, 0.000000000000000000, 1.000000000000000000 ) ) ;
#502 = AXIS2_PLACEMENT_3D ( 'NONE', #39, #1, #176 ) ;
#503 = VECTOR ( 'NONE', #284, 1000.000000000000000 ) ;
#504 = DIRECTION ( 'NONE',  ( -0.000000000000000000, -0.000000000000000000, -1.000000000000000000 ) ) ;
#505 = CYLINDRICAL_SURFACE ( 'NONE', #222, 1.000000000000000000 ) ;
#506 = CARTESIAN_POINT ( 'NONE',  ( -2.497119946501241472, -5.455675207780026348, 8.000000000000000000 ) ) ;
#507 = VERTEX_POINT ( 'NONE', #245 ) ;
#508 = CARTESIAN_POINT ( 'NONE',  ( -4.999999999999999112, 0.000000000000000000, 8.000000000000000000 ) ) ;
#509 = DIRECTION ( 'NONE',  ( 1.000000000000000000, 0.000000000000000000, 0.000000000000000000 ) ) ;
#510 = EDGE_CURVE ( 'NONE', #14, #25, #423, .T. ) ;
#511 = ORIENTED_EDGE ( 'NONE', *, *, #194, .F. ) ;
#512 = AXIS2_PLACEMENT_3D ( 'NONE', #362, #535, #289 ) ;
#513 = DIRECTION ( 'NONE',  ( -0.000000000000000000, -0.000000000000000000, -1.000000000000000000 ) ) ;
#514 = VERTEX_POINT ( 'NONE', #197 ) ;
#515 = CARTESIAN_POINT ( 'NONE',  ( -8.500000000000001776, 5.267826876426367377, -2.000000000000000000 ) ) ;
#516 = EDGE_CURVE ( 'NONE', #483, #488, #434, .T. ) ;
#517 = VERTEX_POINT ( 'NONE', #508 ) ;
#518 = CARTESIAN_POINT ( 'NONE',  ( 1.497119946501244359, -5.455675207780025460, 8.000000000000000000 ) ) ;
#519 = EDGE_LOOP ( 'NONE', ( #529, #297, #463, #89 ) ) ;
#520 = DIRECTION ( 'NONE',  ( -0.9659258262890682012, 0.2588190451025212946, 0.000000000000000000 ) ) ;
#521 = DIRECTION ( 'NONE',  ( -0.000000000000000000, -0.000000000000000000, 1.000000000000000000 ) ) ;
#522 = VECTOR ( 'NONE', #525, 1000.000000000000000 ) ;
#523 = AXIS2_PLACEMENT_3D ( 'NONE', #59, #378, #540 ) ;
#524 = ORIENTED_EDGE ( 'NONE', *, *, #5, .F. ) ;
#525 = DIRECTION ( 'NONE',  ( -0.000000000000000000, -0.000000000000000000, -1.000000000000000000 ) ) ;
#526 = EDGE_LOOP ( 'NONE', ( #389, #444, #437, #183 ) ) ;
#527 = DIRECTION ( 'NONE',  ( 0.000000000000000000, 0.000000000000000000, 1.000000000000000000 ) ) ;
#528 = ADVANCED_FACE ( 'NONE', ( #239 ), #117, .F. ) ;
#529 = ORIENTED_EDGE ( 'NONE', *, *, #492, .F. ) ;
#530 = CARTESIAN_POINT ( 'NONE',  ( 2.497119946501244581, -5.455675207780025460, 0.000000000000000000 ) ) ;
#531 = VECTOR ( 'NONE', #215, 1000.000000000000000 ) ;
#532 = CARTESIAN_POINT ( 'NONE',  ( -4.999999999999999112, 0.000000000000000000, 8.000000000000000000 ) ) ;
#533 = CARTESIAN_POINT ( 'NONE',  ( 0.000000000000000000, 0.000000000000000000, 8.000000000000000000 ) ) ;
#534 = CARTESIAN_POINT ( 'NONE',  ( 0.000000000000000000, 0.000000000000000000, 0.000000000000000000 ) ) ;
#535 = DIRECTION ( 'NONE',  ( -0.000000000000000000, -0.000000000000000000, -1.000000000000000000 ) ) ;
#536 = PLANE ( 'NONE',  #68 ) ;
#537 = DIRECTION ( 'NONE',  ( -0.2588190451025216277, 0.9659258262890679791, 0.000000000000000000 ) ) ;
#538 = EDGE_CURVE ( 'NONE', #275, #554, #498, .T. ) ;
#539 =( NAMED_UNIT ( * ) SI_UNIT ( $, .STERADIAN. ) SOLID_ANGLE_UNIT ( ) );
#540 = DIRECTION ( 'NONE',  ( -1.000000000000000000, 0.000000000000000000, 0.000000000000000000 ) ) ;
#541 = CARTESIAN_POINT ( 'NONE',  ( 0.000000000000000000, 0.000000000000000000, 0.000000000000000000 ) ) ;
#542 = DIRECTION ( 'NONE',  ( -0.000000000000000000, -0.000000000000000000, -1.000000000000000000 ) ) ;
#543 = AXIS2_PLACEMENT_3D ( 'NONE', #546, #13, #156 ) ;
#544 = AXIS2_PLACEMENT_3D ( 'NONE', #530, #411, #52 ) ;
#545 = DIRECTION ( 'NONE',  ( 0.2588190451025212946, 0.9659258262890680902, 0.000000000000000000 ) ) ;
#546 = CARTESIAN_POINT ( 'NONE',  ( 0.000000000000000000, 0.000000000000000000, 0.000000000000000000 ) ) ;
#547 = ORIENTED_EDGE ( 'NONE', *, *, #516, .T. ) ;
#548 = LINE ( 'NONE', #65, #120 ) ;
#549 = DIRECTION ( 'NONE',  ( 0.000000000000000000, 0.000000000000000000, 1.000000000000000000 ) ) ;
#550 = VERTEX_POINT ( 'NONE', #56 ) ;
#551 = CARTESIAN_POINT ( 'NONE',  ( 2.497119946501244581, -5.455675207780025460, 8.000000000000000000 ) ) ;
#552 = LINE ( 'NONE', #22, #481 ) ;
#553 = ADVANCED_FACE ( 'NONE', ( #416 ), #17, .F. ) ;
#554 = VERTEX_POINT ( 'NONE', #559 ) ;
#555 = VECTOR ( 'NONE', #347, 1000.000000000000000 ) ;
#556 = CIRCLE ( 'NONE', #317, 1.000000000000000000 ) ;
#557 = DIRECTION ( 'NONE',  ( -1.000000000000000000, 0.000000000000000000, 0.000000000000000000 ) ) ;
#558 = ORIENTED_EDGE ( 'NONE', *, *, #95, .F. ) ;
#559 = CARTESIAN_POINT ( 'NONE',  ( -0.5340238843579830919, 4.971400053398962626, 0.000000000000000000 ) ) ;
#560 = FACE_OUTER_BOUND ( 'NONE', #354, .T. ) ;
#561 = VERTEX_POINT ( 'NONE', #474 ) ;
#562 = ADVANCED_BREP_SHAPE_REPRESENTATION ( 'remover2', ( #308, #366 ), #102 ) ;
#563 = DIRECTION ( 'NONE',  ( 0.000000000000000000, 0.000000000000000000, -1.000000000000000000 ) ) ;
#564 = ORIENTED_EDGE ( 'NONE', *, *, #272, .T. ) ;
#565 = SURFACE_STYLE_FILL_AREA ( #218 ) ;
#566 = CIRCLE ( 'NONE', #296, 10.00000000000000000 ) ;
#567 = CIRCLE ( 'NONE', #240, 10.00000000000000000 ) ;
#568 = ORIENTED_EDGE ( 'NONE', *, *, #329, .T. ) ;
ENDSEC;
END-ISO-10303-21;
